<svg id="Capa_1" enable-background="new 0 0 512 512" height="512" viewBox="0 0 512 512" width="512" xmlns="http://www.w3.org/2000/svg"><g><path d="m435.413 275.31c-32.688 24.515-72.592 41.535-116.022 49.932-4.386 31.065-31.134 55.043-63.391 55.043s-59.005-23.978-63.391-55.043c-43.43-8.397-83.334-25.417-116.022-49.932-49.388-37.041-76.587-86.693-76.587-139.81v272.5c0 40.735 33.141 73.875 73.875 73.875h364.25c40.734 0 73.875-33.14 73.875-73.875v-272.5c0 53.117-27.199 102.769-76.587 139.81z"/><path d="m191.965 294.463v-27.247c0-8.284 6.716-15 15-15h98.07c8.284 0 15 6.716 15 15v27.247c93.527-20.301 161.965-83.875 161.965-158.963v-15h-120.625v-29.808c0-33.397-27.171-60.567-60.567-60.567h-89.615c-33.396 0-60.567 27.17-60.567 60.567v29.808h-120.626v15c0 75.088 68.438 138.662 161.965 158.963zm-11.34-203.771c0-16.855 13.713-30.567 30.567-30.567h89.615c16.854 0 30.567 13.712 30.567 30.567v29.808h-150.75v-29.808z"/><path d="m290.035 282.215h-68.07v34.035c0 18.767 15.269 34.035 34.035 34.035s34.035-15.268 34.035-34.035z"/></g></svg>